<?xml version="1.0" encoding="utf-8"?>
<!-- Generator: Adobe Illustrator 15.0.2, SVG Export Plug-In . SVG Version: 6.00 Build 0)  -->
<!DOCTYPE svg PUBLIC "-//W3C//DTD SVG 1.1//EN" "http://www.w3.org/Graphics/SVG/1.1/DTD/svg11.dtd">
<svg version="1.1" xmlns="http://www.w3.org/2000/svg" xmlns:xlink="http://www.w3.org/1999/xlink" x="0px" y="0px" width="1024px"
	 height="768px" viewBox="0 0 1024 768" style="enable-background:new 0 0 1024 768;" xml:space="preserve">
<style type="text/css">
<![CDATA[
	.st0{opacity:0.33;fill:#66CCCC;}
	.st1{fill:url(#SVGID_1_);}
	.st2{fill:url(#SVGID_2_);}
	.st3{fill:#FF2F1F;}
	.st4{fill:#FF9900;}
	.st5{fill:#FFCC99;}
	.st6{fill:#666699;}
	.st7{fill:#6666FF;}
	.st8{fill:#66CCCC;}
	.st9{fill:#CC9966;}
	.st10{fill:#CCCCFF;}
	.st11{fill:#CCFF99;}
	.st12{fill:#CCFFCC;}
	.st13{fill:#330033;}
	.st14{fill:#000066;}
	.st15{opacity:0.54;fill:#3300CC;}
]]>
</style>
<g id="web">
	<g>
		<path d="M296,44c0,0-14,24-36,30v6v46c0,0,34-2,48,12c0,0,28-26,46-20c0,0-36-8-46,10c0,0-36,0.868-36-18l-4-32
			C268,78,296,66,296,44z"/>
		<path d="M354,118l-24-54c0,0-22-4-34-20c0,0,24,16,40,10C336,54,360,112,354,118z"/>
		<path d="M280,82"/>
		<path d="M286,116l-6-34c0,0,18-12,18-24c0,0,16,12,22,12s6,0,6,0l12,32c0,0-7.82-14.395-15.82-26.395
			c0,0-13.429,2.414-21.429-9.586c0,0-8.353,16.044-16.353,18.044C284.398,84.063,288,114,286,116z"/>
		<path d="M287.782,115.077l16.353,3.947c0,0,14.161-16.568,33.865-17.024c0,0-30.481,10.258-33.865,24.355
			C304.135,126.355,300.188,120.152,287.782,115.077z"/>
		<path d="M292.673,106.515L289,85.704c0,0,11.018-7.524,11.018-14.869c0,0,9.793,7.165,13.465,7.165c3.673,0,3.673,0,3.673,0
			l7.346,19.766c0,0-4.787-8.72-9.684-16.065c0,0-8.22,1.521-13.116-5.823c0,0-5.113,9.843-10.009,11.067
			C291.692,86.944,293.897,105.29,292.673,106.515z"/>
		<path d="M293.763,105.95l10.01,2.416c0,0,8.668-10.141,20.729-10.42c0,0-18.658,6.278-20.729,14.907
			C303.772,112.853,301.356,109.056,293.763,105.95z"/>
		<path d="M296,44c0,0,14.902,77.844,11.519,89.686"/>
		<path d="M266.354,75.605L354,118C354,118,278.196,73.914,266.354,75.605z"/>
		<path d="M273.685,117.896l57.517-58.081C331.201,59.816,316.54,84.063,273.685,117.896z"/>
	</g>
</g>
<g id="spider">
	<g>
		<path d="M719,683h16.952c0,0,12.54-2.08,9.12,3.619l-3.42,16.061l-1.141-15.91l-27.285-2.454"/>
		<g>
			<ellipse cx="712.604" cy="682.83" rx="8.55" ry="10.829"/>
			<path d="M702,678h-17.326c0,0-12.539-2.43-9.119,3.27l3.42,15.886l1.14-15.998l27.473-2.148"/>
			<path d="M709,683h-17.486c0,0-12.539-2.08-9.119,3.619l3.42,16.061l1.14-15.91l27.553-2.454"/>
			<path d="M709,689h-12.179c0,0-8.87-1.688-6.45,2.395l2.418,11.402l0.807-11.445l19.394-1.583"/>
			<path d="M726,678h16.792c0,0,12.54-2.43,9.12,3.27l-3.42,15.886l-1.141-15.998l-27.205-2.148"/>
			<path d="M719,689h11.645c0,0,8.869-1.688,6.451,2.395l-2.42,11.402l-0.806-11.445l-19.127-1.583"/>
		</g>
	</g>
</g>
<g id="_x32__bats">
	<path d="M144.208,378.365l-3.867-2.366l-0.953,1.294c0.396-1.241,0.662-2.448,0.769-3.598c0.057-0.24,0.098-0.484,0.126-0.733
		l2.572-3.683l2.904-4.159l-5.347-0.397l-4.854-0.361c-1.571-1.015-3.273-1.579-4.897-1.698l-1.86-1.506l-4.08-3.305l-0.639,4.897
		l-0.64,4.898l0.125-0.042c-0.177,1.05-0.093,2.166,0.237,3.272l-0.212-0.035c0,0-27.989-11.457-39.674,15.117l13.332-2.878
		l1.662,6.356c0,0,3.436-4.758,9.377-4.328l8.218,5.935l3.461,0.61c-0.03,3.643,0.755,7.088,2.824,9.947c0,0,3.001-3.08,6.495-7.451
		l7.116,3.906l10.104,0.861c4.79,3.463,4.271,9.52,4.271,9.52l5.399-3.606l8.223,10.879
		C172.891,387.952,144.208,378.365,144.208,378.365z"/>
	<path d="M224.004,428.737l-3.225,1.271l0.352,1.177c-0.575-0.812-1.189-1.53-1.841-2.126c-0.121-0.146-0.25-0.282-0.39-0.413
		l-1.063-3.267l-1.201-3.688l-2.704,3.081l-2.456,2.795c-1.343,0.492-2.471,1.271-3.292,2.207l-1.776,0.441l-3.896,0.968
		l2.695,2.646l2.694,2.646l0.032-0.095c0.559,0.591,1.279,1.054,2.106,1.362l-0.12,0.113c0,0-19.881,11.807-9.043,31.175
		l4.383-9.462l4.645,1.913c0,0-1.321-4.288,1.677-7.717l7.407-2.282l1.966-1.831c2.209,1.694,4.673,2.803,7.371,2.856
		c0,0-0.498-3.249-1.557-7.395l5.661-2.545l5.178-5.769c4.319-1.33,7.777,1.776,7.777,1.776l0.285-4.957l10.427-0.009
		C243.063,415.646,224.004,428.737,224.004,428.737z"/>
</g>
<g id="bat">
	<path d="M869.68,72.53l-2.828,0.216l-0.008,1.006c-0.254-0.775-0.562-1.484-0.928-2.106c-0.06-0.143-0.129-0.282-0.205-0.418
		l-0.044-2.81l-0.05-3.173l-2.857,1.757l-2.594,1.594c-1.168,0.061-2.238,0.398-3.105,0.932l-1.495-0.083l-3.28-0.182l1.47,2.718
		l1.47,2.718l0.047-0.066c0.295,0.597,0.746,1.133,1.318,1.573l-0.12,0.06c0,0-18.392,4.439-14.586,22.197l5.708-6.342l3.17,2.562
		c0,0,0-3.682,3.172-5.682h6.342l1.979-0.905c1.318,1.858,2.979,3.345,5.075,4.038c0,0,0.394-2.648,0.565-6.145l5.039-0.618
		l5.44-3.261c3.698,0.002,5.653,3.267,5.653,3.267l1.416-3.806l8.156,2.507C887.738,66.888,869.68,72.53,869.68,72.53z"/>
</g>
<g id="bottomofguy">
	<path d="M33.614,331.593"/>
	<path class="st7" d="M422,503.5V577h69.571c0,0,17.934-81.854,68.735-4.99L562.78,585H625l-12.896-78.44L422,503.5z"/>
	<path class="st5" d="M430,577.297c0,0-1.015,36.532,18.102,58.765c0,0-18.143,15.119,3.852,17.786c0,0,10.945,19.565,14.547,24.011
		c3.602,4.446,12.863,0,12.863,0s-3.111-21.345-11.475-36.462c0,0,14.234-40.16,13.03-64.1"/>
	<g>
		<g>
			<path class="st14" d="M458.596,657.653c0.001,1.095,0.213,1.969,1.021,2.756c0.397,0.388,2.126-0.297,1.739-0.674
				c-0.755-0.737-0.9-1.566-0.901-2.58C460.454,656.729,458.596,657.035,458.596,657.653L458.596,657.653z"/>
		</g>
	</g>
	<g>
		<g>
			<path class="st14" d="M463.462,661.298c0.397,0.545,0.369,1.081,0.588,1.67c0.052,0.139,0.215,0.161,0.34,0.181
				c1.541,0.248,2.161-1.212,2.788-2.331c0.027-0.075,0.01-0.14-0.051-0.191c-4.736-6.889-14.018-4.879-19.863-0.632
				c-0.8,0.582,1.069,0.434,1.45,0.156c3.084-2.241,6.492-3.508,10.346-3.07c1.998,0.227,7.914,2.878,5.206,5.694
				c0.48-0.155,0.959-0.31,1.439-0.464c0.375,0.06-0.359-1.487-0.502-1.685C464.902,660.214,463.111,660.816,463.462,661.298
				L463.462,661.298z"/>
		</g>
	</g>
	<g>
		<g>
			<path class="st14" d="M467.105,672.999c-3.511-4.004-8.662-4.555-13.524-2.905c-1.114,0.378-0.788,1.687,0.349,1.301
				c4.182-1.418,8.445-1.026,11.476,2.431C465.975,674.474,467.736,673.719,467.105,672.999L467.105,672.999z"/>
		</g>
	</g>
	<g>
		<g>
			<path class="st14" d="M472.944,667.039c0.741-1.34,1.697-2.418,2.813-3.451c0.327-0.303-0.283-0.389-0.459-0.38
				c-0.434,0.021-0.915,0.164-1.238,0.464c-1.179,1.093-2.174,2.251-2.957,3.664c-0.183,0.332,0.666,0.264,0.762,0.249
				C472.227,667.526,472.75,667.388,472.944,667.039L472.944,667.039z"/>
		</g>
	</g>
	<g>
		<g>
			<path class="st14" d="M476.752,670.831c1.064-2.578,4.079-3.822,6.716-3.891c1.029-0.027,1.454-1.318,0.186-1.285
				c-3.306,0.087-7.33,1.763-8.667,5.002C474.59,671.617,476.458,671.545,476.752,670.831L476.752,670.831z"/>
		</g>
	</g>
	<g>
		<g>
			<path class="st14" d="M472.947,658.156c2.87-4.913,8.029-6.566,13.351-7.428c0.822-0.133,1.59-1.084,0.295-0.875
				c-6.129,0.992-12.191,2.929-15.493,8.578C470.875,658.818,472.645,658.672,472.947,658.156L472.947,658.156z"/>
		</g>
	</g>
	<g>
		<g>
			<path class="st14" d="M470.056,651.015c0.979-3.329,3.462-5.815,6.851-6.667c1.088-0.273,0.932-0.837-0.151-0.564
				c-3.979,1.001-7.342,3.513-8.532,7.562C468.115,651.715,469.919,651.479,470.056,651.015L470.056,651.015z"/>
		</g>
	</g>
	<g>
		<g>
			<path class="st14" d="M464.3,666.938c-1.416-4.291-7.137-4.53-10.899-4.563c-0.373-0.003-2.113,0.723-1.213,0.73
				c3.58,0.031,8.91,0.258,10.253,4.331C462.577,667.845,464.418,667.297,464.3,666.938L464.3,666.938z"/>
		</g>
	</g>
	<g>
		<g>
			<path class="st14" d="M451.737,620.588c-1.923-2.668-3.845-5.336-5.769-8.003c-0.348-0.483-2.146,0.134-1.729,0.711
				c1.923,2.668,3.846,5.335,5.769,8.003C450.355,621.782,452.153,621.166,451.737,620.588L451.737,620.588z"/>
		</g>
	</g>
	<g>
		<g>
			<path class="st14" d="M453.722,630.602c0.847-2.436,0.921-4.563-1.023-6.457c-0.448-0.436-2.197,0.257-1.729,0.713
				c1.825,1.777,1.688,3.724,0.899,5.992C451.662,631.442,453.515,631.197,453.722,630.602L453.722,630.602z"/>
		</g>
	</g>
	<g>
		<g>
			<path class="st14" d="M470.053,626.992c1.571-3.506,3.938-6.5,8.09-6.589c0.35-0.008,2.098-0.716,1.222-0.697
				c-5.296,0.114-8.994,2.851-11.138,7.638C468.127,627.565,469.852,627.44,470.053,626.992L470.053,626.992z"/>
		</g>
	</g>
	<g>
		<g>
			<path class="st14" d="M464.446,614.763c-1.86,1.81-2.002,3.964-2.004,6.43c0,0.384,1.858,0.092,1.858-0.498
				c0.001-2.312,0.097-4.322,1.841-6.02c0.316-0.308-0.272-0.384-0.457-0.374C465.261,614.323,464.758,614.459,464.446,614.763
				L464.446,614.763z"/>
		</g>
	</g>
	<g>
		<g>
			<path class="st14" d="M462.326,633.975c-0.759-0.74-0.909-1.591-0.91-2.608c0-0.257-1.859-0.003-1.858,0.498
				c0.001,1.093,0.209,1.943,1.014,2.728C460.902,634.915,462.573,634.216,462.326,633.975L462.326,633.975z"/>
		</g>
	</g>
	<g>
		<g>
			<path class="st14" d="M445.072,624.252c-1.146-2.915-3.84-5.357-7.063-5.49c-0.424-0.018-2.138,0.766-1.192,0.805
				c2.938,0.122,5.371,2.572,6.397,5.184C443.405,625.237,445.229,624.652,445.072,624.252L445.072,624.252z"/>
		</g>
	</g>
	<g>
		<g>
			<path class="st14" d="M469.674,612.307c-1.421-0.565-2.728-1.403-1.635-2.951c0.904-1.28,2.378-2.211,3.643-3.097
				c1.034-0.724-0.481-1.396-1.237-0.865c-1.68,1.176-3.879,2.565-4.628,4.587c-0.708,1.909,1.333,3.014,2.79,3.594
				C469.405,613.893,470.776,612.746,469.674,612.307L469.674,612.307z"/>
		</g>
	</g>
	<g>
		<g>
			<path class="st14" d="M463.348,605.746c-0.001-1.569,0.134-3.548-1.047-4.768c-0.56-0.578-2.323,0.163-1.706,0.801
				c1.016,1.049,0.875,2.776,0.875,4.127C461.471,606.847,463.348,606.536,463.348,605.746L463.348,605.746z"/>
		</g>
	</g>
	<g>
		<g>
			<path class="st14" d="M456.533,614.319c-0.755-1.436-1.168-3.01-1.924-4.447c-0.363-0.691-2.145-0.035-1.706,0.799
				c0.754,1.436,1.167,3.01,1.924,4.447C455.19,615.81,456.971,615.152,456.533,614.319L456.533,614.319z"/>
		</g>
	</g>
	<g>
		<g>
			<path class="st14" d="M462.214,611.393c0.347-0.322,0.71-0.635,0.955-1.045c0.188-0.316,0.177-0.699,0.177-1.052
				c0-0.911-1.873-0.579-1.874,0.174c0,0.239,0.009,0.578-0.063,0.727c-0.112,0.229-0.5,0.523-0.727,0.733
				c-0.314,0.291-0.161,0.7,0.218,0.814C461.36,611.883,461.873,611.708,462.214,611.393L462.214,611.393z"/>
		</g>
	</g>
	<g>
		<g>
			<path class="st14" d="M444.043,601.013c-0.962-0.889-1.923-1.778-2.885-2.668c-0.489-0.451-2.236,0.259-1.725,0.732
				c0.962,0.889,1.923,1.778,2.885,2.668C442.807,602.196,444.555,601.486,444.043,601.013L444.043,601.013z"/>
		</g>
	</g>
	<g>
		<g>
			<path class="st14" d="M444.11,610.912c-2.1-3.621-5.842-5.375-9.941-5.466c-0.392-0.009-2.123,0.739-1.205,0.76
				c3.856,0.085,7.326,1.821,9.288,5.204C442.52,611.873,444.262,611.175,444.11,610.912L444.11,610.912z"/>
		</g>
	</g>
	<g>
		<g>
			<path class="st14" d="M474.702,593.562c1.602-1.482,3.205-2.964,4.807-4.446c0.298-0.276,0.19-0.632-0.195-0.728
				c-0.443-0.109-0.982,0.045-1.314,0.353c-1.602,1.482-3.205,2.964-4.807,4.446c-0.298,0.276-0.19,0.631,0.195,0.728
				C473.831,594.024,474.37,593.87,474.702,593.562L474.702,593.562z"/>
		</g>
	</g>
	<g>
		<g>
			<path class="st14" d="M478.638,600.436c1.179-1.09,2.809-3.017,4.527-3.104c0.521-0.026,2.025-0.863,0.79-0.801
				c-2.868,0.145-5.009,2.165-7.008,4.014c-0.322,0.297,0.28,0.356,0.45,0.346C477.821,600.864,478.319,600.73,478.638,600.436
				L478.638,600.436z"/>
		</g>
	</g>
	<g>
		<g>
			<path class="st14" d="M462.377,598.462c-0.093-2.255-2.322-3.681-4.393-3.753c-0.397-0.015-0.968,0.164-1.235,0.473
				c-0.292,0.339,0.252,0.409,0.469,0.416c1.698,0.06,3.233,1.707,3.301,3.362C460.538,599.413,462.402,599.075,462.377,598.462
				L462.377,598.462z"/>
		</g>
	</g>
	<g>
		<g>
			<path class="st14" d="M450.785,594.836c-1.173-1.084-2.395-1.98-3.846-2.667c-0.353-0.166-0.854-0.02-1.197,0.104
				c-0.053,0.02-0.862,0.384-0.553,0.53c1.45,0.686,2.672,1.582,3.846,2.667C449.398,595.806,451.074,595.103,450.785,594.836
				L450.785,594.836z"/>
		</g>
	</g>
	<g>
		<g>
			<path class="st14" d="M435.392,590.353c-5.292-4.478-12.06-3.702-18.287-1.857c-1.095,0.325-0.874,1.194,0.232,0.867
				c5.633-1.67,11.532-2.354,16.325,1.701C434.143,591.47,435.864,590.752,435.392,590.353L435.392,590.353z"/>
		</g>
	</g>
	<g>
		<g>
			<path class="st14" d="M450.499,603.639c0.97-0.045,2.243-0.47,2.265-1.619c0.009-0.49-1.846-0.174-1.858,0.498
				c0.004-0.217-0.021,0.072-0.037,0.132c-0.099,0.379-0.306,0.058,0.378,0.026c-0.417,0.02-0.958,0.137-1.231,0.488
				C449.749,603.505,450.238,603.651,450.499,603.639L450.499,603.639z"/>
		</g>
	</g>
	<g>
		<g>
			<path class="st14" d="M450.777,586.802c-2.968-3.435-7.915-4.828-12.005-2.545c-1.092,0.609,0.58,0.756,1.126,0.451
				c3.191-1.781,7.019,0.33,9.146,2.791C449.424,587.938,451.196,587.287,450.777,586.802L450.777,586.802z"/>
		</g>
	</g>
	<g>
		<g>
			<path class="st14" d="M461.251,585.599c0.842-0.779,2.025-1.74,2.095-2.983c0.05-0.894-1.831-0.575-1.873,0.178
				c-0.055,0.986-1.084,1.735-1.751,2.353c-0.313,0.289-0.164,0.692,0.216,0.806C460.396,586.087,460.911,585.914,461.251,585.599
				L461.251,585.599z"/>
		</g>
	</g>
	<g>
		<g>
			<path class="st14" d="M467.039,591.003c2.964-4.348,7.364-6.586,12.601-6.701c1.079-0.023,1.412-1.444,0.15-1.416
				c-5.828,0.129-11.007,2.674-14.317,7.527C464.8,591.4,466.536,591.74,467.039,591.003L467.039,591.003z"/>
		</g>
	</g>
	<g>
		<g>
			<path class="st14" d="M455.661,643.114c-0.019-0.499-0.11-0.901-0.337-1.346c-0.058-0.115-0.139-0.218-0.221-0.315
				c-0.029-0.033-0.059-0.064-0.09-0.096c-0.327-0.33-0.026-0.068,0.007,0.096c-0.487,0.299-0.973,0.599-1.459,0.898
				c0.82,0.276,1.75,0.508,2.011,1.427c0.13,0.456-0.232,1.012-0.414,1.405c-0.236,0.513-0.396,1.047-0.422,1.612
				c-0.046,1.004,1.846,0.758,1.887-0.125c0.059-1.272,1.129-2.259,0.753-3.581c-0.362-1.271-1.645-1.661-2.755-2.037
				c-0.562-0.19-1.612,0.144-1.459,0.898c0.03,0.146,0.129,0.226,0.232,0.321c0.003,0.003-0.054-0.063,0.065,0.079
				c0.209,0.249,0.303,0.565,0.315,0.888C453.812,644.25,455.693,643.988,455.661,643.114L455.661,643.114z"/>
		</g>
	</g>
	<g>
		<g>
			<path class="st14" d="M462.498,643.5c0.269,0.249,0.596,0.496,0.785,0.814c0.153,0.257,0.12,0.604,0.12,0.89
				c0,0.347,1.859,0.065,1.858-0.498c0-0.303,0.015-0.61-0.12-0.89c-0.186-0.382-0.594-0.683-0.896-0.963
				C463.866,642.503,462.175,643.201,462.498,643.5L462.498,643.5z"/>
		</g>
	</g>
	<path class="st5" d="M483.955,676.207c0,0,20.383-1.262,12.626,11.204c0,0-0.926,3.288-13.905,10.316
		c0,0-17.35,2.928-14.539,13.626c0,0,4.676,9.86-3.489,6.008c0,0-5.959-4.594-3.283-12.242l-1.829,10.88
		c0,0-7.888,2.136-7.548-2.422c0.036-0.472,0.221-0.995,0.45-1.62c2.445-6.662,0.229-0.987,0.229-0.987l3.456-9.88l-7.908,13.473
		c0,0-8.227,1.414-1.08-7.01c0,0,0.281-7.308,3.553-10.201l-9.459,13.012c0,0-8.465,2.396-4.932-2.531c0,0,5.926-8.79,12.065-11.881
		l-17.567,10.585c0,0-13.418,0.913-7.78-5.497c0,0,19.875-14.471,39.899-18.688c0,0,6.782-4.758,4.207-11.007"/>
	<path class="st9" d="M479.363,677.858c0,0,11.113,6.77-1.826,13.106C477.537,690.965,497.172,678.833,479.363,677.858z"/>
	<path class="st5" d="M617.562,584.696c0,0,1.015,36.532-18.102,58.765c0,0,18.143,15.119-3.852,17.786
		c0,0-10.945,19.565-14.547,24.011c-3.602,4.446-12.863,0-12.863,0s3.111-21.344,11.475-36.461c0,0-14.234-40.161-13.03-64.101"/>
	<g>
		<g>
			<path class="st14" d="M587.103,664.898c-0.001,0.926-0.096,1.687-0.787,2.36c-0.298,0.291-0.182,0.669,0.208,0.777
				c0.444,0.124,0.987-0.033,1.313-0.352c0.865-0.845,1.134-1.797,1.135-2.974C588.973,663.83,587.103,664.18,587.103,664.898
				L587.103,664.898z"/>
		</g>
	</g>
	<g>
		<g>
			<path class="st14" d="M582.354,668.298c-0.152,0.144-0.258,0.312-0.314,0.508c-0.588,1.604,0.168-0.191,1.032,0.706
				c-2.103-2.186,2.722-4.338,4.116-4.738c4.013-1.152,8.483,0.884,11.659,3.191c0.577,0.419,2.259-0.402,1.455-0.986
				c-6.093-4.427-15.13-5.577-19.872,1.319c-0.106,0.155-0.062,0.304,0.021,0.45c0.459,0.819,0.875,2.153,2.029,1.968
				c0.313-0.05,0.851-0.185,0.981-0.534c0.228-0.613,0.242-1.202,0.646-1.757C584.658,667.669,582.766,667.733,582.354,668.298
				L582.354,668.298z"/>
		</g>
	</g>
	<g>
		<g>
			<path class="st14" d="M582.165,680.808c2.896-3.302,6.93-3.583,10.896-2.237c0.522,0.178,2.209-0.608,1.49-0.852
				c-5.047-1.714-10.467-1.051-14.104,3.097C579.948,681.386,581.802,681.223,582.165,680.808L582.165,680.808z"/>
		</g>
	</g>
	<g>
		<g>
			<path class="st14" d="M576.397,674.207c-0.762-1.376-1.736-2.494-2.885-3.557c-0.527-0.488-2.281,0.237-1.717,0.76
				c1.148,1.062,2.123,2.181,2.885,3.557C575.012,675.564,576.812,674.956,576.397,674.207L576.397,674.207z"/>
		</g>
	</g>
	<g>
		<g>
			<path class="st14" d="M572.622,677.896c-1.297-3.145-5.06-4.729-8.282-4.814c-0.819-0.021-1.935,1.199-0.676,1.232
				c2.721,0.071,5.997,1.405,7.101,4.08C571.078,679.155,572.918,678.611,572.622,677.896L572.622,677.896z"/>
		</g>
	</g>
	<g>
		<g>
			<path class="st14" d="M576.393,665.297c-3.184-5.45-9.04-7.285-14.942-8.24c-0.86-0.14-1.912,1.066-0.666,1.268
				c5.552,0.898,10.912,2.65,13.901,7.766C575.074,666.756,576.859,666.095,576.393,665.297L576.393,665.297z"/>
		</g>
	</g>
	<g>
		<g>
			<path class="st14" d="M579.352,658.33c-1.107-3.771-4.107-6.331-7.871-7.277c-0.438-0.109-0.915-0.016-1.309,0.201
				c-0.173,0.095-0.632,0.512-0.189,0.623c3.619,0.91,6.445,3.324,7.512,6.951C577.658,659.388,579.512,658.874,579.352,658.33
				L579.352,658.33z"/>
		</g>
	</g>
	<g>
		<g>
			<path class="st14" d="M585.111,674.437c1.242-3.764,5.94-3.851,9.266-3.879c0.549-0.005,2.022-0.845,0.781-0.834
				c-4.008,0.035-10.373,0.427-11.887,5.014C583.123,675.186,584.942,674.948,585.111,674.437L585.111,674.437z"/>
		</g>
	</g>
	<g>
		<g>
			<path class="st14" d="M579.352,634.319c-1.981-4.424-5.191-7.331-10.194-7.438c-0.761-0.017-1.957,1.119-0.697,1.146
				c4.499,0.098,7.274,2.86,9.034,6.79C577.809,635.521,579.637,634.955,579.352,634.319L579.352,634.319z"/>
		</g>
	</g>
	<g>
		<g>
			<path class="st14" d="M585.12,628.094c-0.001-2.435-0.154-4.54-1.983-6.32c-0.419-0.407-2.157,0.28-1.736,0.689
				c1.775,1.727,1.86,3.786,1.862,6.129C583.263,629.063,585.121,628.743,585.12,628.094L585.12,628.094z"/>
		</g>
	</g>
	<g>
		<g>
			<path class="st14" d="M586.965,641.648c0.843-0.82,1.039-1.747,1.04-2.883c0.001-0.416-1.857-0.114-1.857,0.498
				c-0.001,0.975-0.162,1.749-0.884,2.453c-0.32,0.312,0.274,0.409,0.465,0.401C586.161,642.101,586.648,641.957,586.965,641.648
				L586.965,641.648z"/>
		</g>
	</g>
	<g>
		<g>
			<path class="st14" d="M578.783,620.695c1.401-0.558,3.24-1.425,3.062-3.206c-0.197-1.979-3.064-3.628-4.481-4.62
				c-0.521-0.365-2.205,0.38-1.729,0.713c1.278,0.895,2.553,1.814,3.594,2.987c1.39,1.563,0.585,2.718-1.167,3.415
				C576.852,620.466,577.967,621.021,578.783,620.695L578.783,620.695z"/>
		</g>
	</g>
	<g>
		<g>
			<path class="st14" d="M586.082,612.977c0.001-1.232-0.161-3.08,0.776-4.048c0.758-0.782-1.065-0.737-1.488-0.301
				c-1.251,1.292-1.145,3.167-1.146,4.847C584.224,614.047,586.082,613.695,586.082,612.977L586.082,612.977z"/>
		</g>
	</g>
	<g>
		<g>
			<path class="st14" d="M584.225,617.031c0,0.303-0.016,0.61,0.12,0.89c0.196,0.405,0.584,0.704,0.906,1.003
				c0.479,0.443,2.224-0.264,1.727-0.725c-0.279-0.258-0.582-0.509-0.802-0.822c-0.146-0.209-0.094-0.609-0.094-0.844
				C586.082,615.962,584.224,616.313,584.225,617.031L584.225,617.031z"/>
		</g>
	</g>
	<g>
		<g>
			<path class="st14" d="M574.484,600.436c-1.602-1.482-3.204-2.964-4.807-4.445c-0.416-0.385-2.135,0.312-1.738,0.678
				c1.602,1.481,3.205,2.963,4.807,4.445C573.162,601.498,574.881,600.803,574.484,600.436L574.484,600.436z"/>
		</g>
	</g>
	<g>
		<g>
			<path class="st14" d="M570.638,607.548c-1.691-1.564-3.603-3.539-6.052-3.663c-0.453-0.022-0.944,0.069-1.313,0.353
				c-0.276,0.211-0.243,0.522,0.146,0.542c2.196,0.11,3.968,2.051,5.483,3.452C569.325,608.623,571.049,607.927,570.638,607.548
				L570.638,607.548z"/>
		</g>
	</g>
	<g>
		<g>
			<path class="st14" d="M587.053,606.03c0.062-1.495,1.315-2.777,2.817-2.83c1.031-0.036,1.451-1.34,0.182-1.295
				c-2.268,0.079-4.777,1.868-4.876,4.285C585.137,607.125,587.021,606.826,587.053,606.03L587.053,606.03z"/>
		</g>
	</g>
	<g>
		<g>
			<path class="st14" d="M587.93,592.372c-0.616-0.57-1.786-1.421-1.838-2.349c-0.053-0.941-1.92-0.614-1.877,0.16
				c0.072,1.291,1.12,2.165,2.008,2.987c0.346,0.319,0.843,0.306,1.256,0.113C587.733,593.164,588.275,592.692,587.93,592.372
				L587.93,592.372z"/>
		</g>
	</g>
	<g>
		<g>
			<path class="st14" d="M582.175,597.766c-3.256-4.775-8.245-7.102-13.946-7.228c-0.605-0.014-2.01,0.883-0.762,0.91
				c5.366,0.119,9.953,2.575,12.972,7.001C580.734,598.884,582.536,598.296,582.175,597.766L582.175,597.766z"/>
		</g>
	</g>
	<g>
		<g>
			<path class="st14" d="M593.773,650.327c0.014-0.366,0.106-0.737,0.33-1.033c0.07-0.093,0.264-0.219,0.288-0.34
				c0.104-0.513-1.069-0.184-1.257-0.121c-0.375,0.126-0.567,0.243-1.059,0.413c-0.842,0.292-1.344,0.651-1.798,1.444
				c-0.669,1.168,0.621,2.509,0.676,3.691c0.02,0.422,1.885,0.089,1.857-0.498c-0.033-0.719-0.327-1.316-0.616-1.962
				c-0.412-0.921-0.167-1.578,0.537-2.274c-0.252,0.129-0.505,0.258-0.757,0.387c0.451-0.143,0.9-0.287,1.342-0.455
				c0.136-0.052,0.933-0.356,0.49-0.208c-0.419-0.04-0.838-0.081-1.257-0.121c0.026-0.131,0.055-0.092-0.044,0.008
				c-0.11,0.111-0.205,0.247-0.285,0.381c-0.22,0.372-0.29,0.759-0.306,1.187C591.901,651.205,593.751,650.935,593.773,650.327
				L593.773,650.327z"/>
		</g>
	</g>
	<g>
		<g>
			<path class="st14" d="M583.43,650.362c-0.344,0.318-0.714,0.632-0.956,1.039c-0.188,0.317-0.178,0.692-0.179,1.047
				c0,0.883,1.87,0.534,1.871-0.188c0-0.235-0.016-0.573,0.062-0.732c0.118-0.243,0.495-0.525,0.726-0.738
				c0.308-0.285,0.172-0.673-0.209-0.779C584.291,649.883,583.768,650.05,583.43,650.362L583.43,650.362z"/>
		</g>
	</g>
	<path class="st5" d="M564.173,684.133c0,0-20.429,0.008-11.784,11.963c0,0,1.162,3.223,14.623,9.43c0,0,17.522,1.844,15.495,12.692
		c0,0-3.949,10.129,3.918,5.778c0,0,5.611-4.954,2.387-12.42l2.615,10.742c0,0,8.024,1.642,7.354-2.886
		c-0.07-0.468-0.292-0.979-0.566-1.589c-2.924-6.494-0.301-0.969-0.301-0.969l-4.166-9.644l8.869,12.95c0,0,8.311,0.9,0.568-7.06
		c0,0-0.812-7.274-4.285-9.959l10.382,12.395c0,0,8.62,1.865,4.737-2.831c0,0-6.551-8.402-12.901-11.104l18.297,9.47
		c0,0,13.454,0.078,7.363-5.968c0,0-20.881-13.204-41.166-16.168c0,0-7.112-4.325-4.997-10.721"/>
	<path class="st9" d="M568.199,685.258c0,0-11.113,6.77,1.826,13.106C570.025,698.364,550.391,686.232,568.199,685.258z"/>
	<g>
		<g>
			<path class="st14" d="M602.558,625.369c1.923-2.667,3.845-5.335,5.769-8.003c0.505-0.7-1.372-0.555-1.734-0.053
				c-1.923,2.667-3.845,5.335-5.769,8.003C600.318,626.017,602.195,625.871,602.558,625.369L602.558,625.369z"/>
		</g>
	</g>
	<g>
		<g>
			<path class="st14" d="M600.696,634.876c-0.786-2.262-0.948-4.237,0.88-6.019c0.316-0.309-0.272-0.386-0.457-0.376
				c-0.425,0.021-0.927,0.158-1.238,0.462c-1.94,1.892-1.892,3.988-1.042,6.431C599.014,635.878,600.853,635.326,600.696,634.876
				L600.696,634.876z"/>
		</g>
	</g>
	<g>
		<g>
			<path class="st14" d="M609.312,629.024c0.937-2.382,3.073-4.635,5.765-4.746c1.079-0.045,1.409-1.48,0.146-1.428
				c-3.464,0.144-6.462,2.784-7.696,5.926C607.125,629.799,608.993,629.837,609.312,629.024L609.312,629.024z"/>
		</g>
	</g>
	<g>
		<g>
			<path class="st14" d="M597.777,619.249c0.756-1.437,1.169-3.01,1.924-4.446c0.508-0.965-1.379-1.042-1.789-0.262
				c-0.756,1.437-1.169,3.01-1.924,4.446C595.48,619.952,597.367,620.029,597.777,619.249L597.777,619.249z"/>
		</g>
	</g>
	<g>
		<g>
			<path class="st14" d="M610.116,605.892c0.962-0.889,1.923-1.778,2.885-2.668c0.269-0.248,0.241-0.518-0.155-0.579
				c-0.413-0.063-0.999,0.062-1.313,0.353c-0.962,0.889-1.923,1.778-2.885,2.668c-0.27,0.248-0.241,0.518,0.155,0.579
				C609.216,606.308,609.802,606.183,610.116,605.892L610.116,605.892z"/>
		</g>
	</g>
	<g>
		<g>
			<path class="st14" d="M610.257,615.617c1.783-3.076,4.865-4.726,8.395-4.803c0.769-0.018,1.943-1.205,0.689-1.178
				c-4.42,0.098-8.559,1.944-10.834,5.869C608.028,616.332,609.91,616.215,610.257,615.617L610.257,615.617z"/>
		</g>
	</g>
	<g>
		<g>
			<path class="st14" d="M603.271,599.983c1.115-1.03,2.261-1.89,3.641-2.542c0.337-0.159,0.717-0.59,0.437-0.967
				c-0.281-0.379-0.89-0.32-1.263-0.145c-1.521,0.72-2.82,1.655-4.051,2.792C601.11,599.976,602.577,600.625,603.271,599.983
				L603.271,599.983z"/>
		</g>
	</g>
	<g>
		<g>
			<path class="st14" d="M618.778,595.255c4.678-3.958,10.562-3.036,15.992-1.426c0.58,0.172,2.184-0.69,1.141-1
				c-6.41-1.9-13.217-2.441-18.619,2.131C616.476,595.65,618.328,595.637,618.778,595.255L618.778,595.255z"/>
		</g>
	</g>
	<g>
		<g>
			<path class="st14" d="M602.003,606.849c-0.234-0.011-0.208,0.009-0.307-0.155c0.024,0.041-0.028-0.323-0.023-0.086
				c-0.02-1.017-1.905-0.766-1.889,0.121c0.018,0.898,0.711,1.497,1.594,1.538c0.46,0.021,1-0.117,1.206-0.583
				C602.763,607.279,602.422,606.868,602.003,606.849L602.003,606.849z"/>
		</g>
	</g>
	<g>
		<g>
			<path class="st14" d="M603.407,591.74c2.247-2.601,5.853-4.188,9.088-2.382c0.584,0.325,2.279-0.498,1.465-0.953
				c-4.079-2.276-9.193-0.366-12.062,2.954C601.16,592.213,602.959,592.259,603.407,591.74L603.407,591.74z"/>
		</g>
	</g>
</g>
<g id="midsectionofguy">
	<path class="st9" d="M421.667,273c0,0-2,70.667,95.333,70c0,0,54-8,42-69.333"/>
	<path class="st9" d="M409,273c0,0-34,6.5-33,95c0,0,1.5,85.5,8,94l12.5-2c0,0-5-94,15.5-124"/>
	<path class="st9" d="M417,445c0,0,103.334-68.334,180.667,1.333c0,0,43.333,49.667-28.667,56.667s-165,13-158-30L417,445z"/>
	<path class="st5" d="M435.575,273c0,0,2.342,51.98,56.664,53.386c0,0,64.624,2.614,51.98-53.386H435.575z"/>
	<g>
		<g>
			<g>
				<path class="st14" d="M466.119,316.442c2.789-0.566,5.7-2.378,5.731-5.547c0.031-3.121-2.327-5.424-5.325-5.849
					c-1.987-0.282-3.938,0.382-5.742,1.132c-1.182,0.491-3.108,1.292-3.443,2.703c-0.481,2.024,3.778,2.278,4.761,2.986
					c0.363,0.262,2.105,0.042,1.866-0.626c-0.133-0.371-0.131-1.842-0.519-2.007c-0.843-0.358-2.322,0.598-3.066,0.824
					c-1.133,0.344-0.91,1.233,0.237,0.885c0.553-0.168,1.099-0.345,1.638-0.553c0.075-0.029,1.034-0.383,0.535-0.266
					c-0.339-0.025-0.679-0.05-1.019-0.075c-0.05-0.049,0.18,1.484,0.261,1.71c0.622-0.208,1.244-0.417,1.866-0.626
					c-1.026-0.74-2.557-0.857-3.693-1.44c-3.269-1.677,3.715-3.767,5.12-3.655c2.284,0.182,3.993,1.992,4.492,4.139
					c0.645,2.777-1.358,4.856-3.937,5.381C464.702,315.797,464.966,316.677,466.119,316.442L466.119,316.442z"/>
			</g>
		</g>
		<g>
			<g>
				<path class="st14" d="M474.463,323.368c0.472-3.053,1.73-7.505,4.504-9.243c1.816-1.138,4.377,2.129,3.843,3.804
					c-0.606,1.898-3.751,1.97-4.911,0.705c-0.424-0.463-2.261,0.23-1.8,0.733c1.702,1.857,4.881,1.193,6.842,0.168
					c3.036-1.587,1.9-4.535-0.528-6.052c-2.351-1.468-5.1,0.06-6.614,1.953c-1.792,2.24-2.83,5.393-3.263,8.196
					C472.429,324.33,474.369,323.977,474.463,323.368L474.463,323.368z"/>
			</g>
		</g>
		<g>
			<g>
				<path class="st14" d="M495.064,322.375c-3.546-1.214-7.165,0.608-7.081,4.629c0.093,4.463,4.406,5.961,8.167,4.974
					c5.099-1.338,8.469-6.241,5.268-10.996c-3.24-4.812-9.937-5.13-14.55-2.392c-1.124,0.667,0.502,1.271,1.265,0.819
					c3.667-2.176,8.091-1.37,10.96,1.712c2.975,3.195,1.74,7.139-1.906,9.063c-2.932,1.546-6.31,0.793-7.142-2.617
					c-0.677-2.776,1.091-4.902,3.892-3.943C494.717,323.893,496.21,322.767,495.064,322.375L495.064,322.375z"/>
			</g>
		</g>
		<g>
			<g>
				<path class="st14" d="M511.466,326.38c0.101-2.88,2.649-6.058,5.66-5.827c-0.197-0.098-0.395-0.196-0.592-0.294
					c0.083,0.959,0.162,2.291-0.568,3.06c-0.347,0.365-1.683-1.179-1.852-1.391c-0.45-0.564,0.418-0.569,0.822-0.563
					c1.103,0.017,1.781,0.952,2.098,1.894c0.23,0.687,2.151,0.136,1.932-0.518c-0.627-1.868-2.144-2.559-4.021-2.461
					c-0.994,0.052-2.953,0.617-2.945,1.874c0.004,0.707,1.312,1.576,1.85,1.902c0.648,0.394,1.537,0.484,2.264,0.298
					c2.19-0.561,2.524-2.626,2.353-4.613c-0.021-0.243-0.427-0.282-0.592-0.294c-3.95-0.303-8.195,3.049-8.34,7.173
					C509.505,327.427,511.443,327.029,511.466,326.38L511.466,326.38z"/>
			</g>
		</g>
		<g>
			<g>
				<path class="st14" d="M507.916,307.101c-1.852,0.171-6.014,0.915-5.381,3.658c0.62,2.687,4.731,3.351,6.925,3.016
					c1.792-0.273,4.661-1.713,3.76-3.987c-0.93-2.348-4.617-0.729-5.962,0.175c-0.1,0.067-0.234,0.157-0.224,0.296
					c0.039,0.514,0.184,0.881,0.647,1.136c0.199,0.109,0.799,0.134,0.853,0.364c0.104,0.441,2.042-0.049,1.932-0.518
					c-0.066-0.283-0.361-0.347-0.611-0.412c-0.612-0.158-0.84-0.446-0.889-1.088c-0.075,0.099-0.149,0.197-0.224,0.296
					c1.051-0.707,2.321-0.851,2.667,0.659c0.318,1.39-0.973,2.322-2.19,2.398c-1.622,0.101-3.759-0.957-4.564-2.379
					c-1.021-1.801,0.96-2.68,2.43-2.816c0.427-0.04,0.97-0.157,1.292-0.466C508.696,307.127,508.097,307.084,507.916,307.101
					L507.916,307.101z"/>
			</g>
		</g>
		<g>
			<g>
				<path class="st14" d="M524.966,315.241c-0.658-2.006-0.04-3.801,2.229-4.029c2.146-0.215,4.097,1.173,4.833,3.124
					c0.766,2.029-0.166,4.286-1.773,5.605c-1.74,1.429-3.649,1.024-4.289-1.2c-0.27,0.28-0.54,0.56-0.81,0.84
					c1.309-0.374,2.473-0.358,3.771,0.013c0.731,0.208,2.286-0.863,1.146-1.188c-1.786-0.51-3.446-0.496-5.229,0.013
					c-0.323,0.092-0.938,0.396-0.81,0.84c0.847,2.943,3.679,3.388,6.21,2.206c2.736-1.278,4.497-4.3,3.823-7.29
					c-1.403-6.224-13.296-5.311-11.033,1.584C523.295,316.553,525.22,316.014,524.966,315.241L524.966,315.241z"/>
			</g>
		</g>
		<g>
			<g>
				<path class="st14" d="M518.534,328.759c2.134,4.432,8.78,3.441,10.916-0.438c0.113-0.206-1.642-0.112-1.9,0.357
					c-1.738,3.157-5.603,2.64-7.084-0.438C520.254,327.801,518.401,328.484,518.534,328.759L518.534,328.759z"/>
			</g>
		</g>
		<g>
			<g>
				<path class="st14" d="M521.143,326.116c0.672,0.051,1.585,0.343,2.35,0.42c1.167,0.117,2.344-0.084,3.41-0.562
					c-0.456-0.072-0.912-0.143-1.368-0.215c0.063,0.364,0.116,0.695,0.049,1.062c0.036-0.198,0.505-0.143-0.104-0.115
					c-0.556,0.026-1.092,0.075-1.629,0.231c-1.163,0.338-0.87,1.465,0.301,1.125c0.828-0.24,1.697-0.05,2.498-0.436
					c0.994-0.478,0.985-1.426,0.817-2.386c-0.095-0.541-1.062-0.353-1.368-0.215c-1.461,0.655-2.775-0.031-4.24-0.143
					C521.028,324.82,519.833,326.016,521.143,326.116L521.143,326.116z"/>
			</g>
		</g>
		<g>
			<g>
				<path class="st14" d="M540.462,318.864c0.825-3.961,0.577-9.098,4.905-11.022c1.237-0.55,0.089-1.049-0.734-0.684
					c-5.148,2.289-5.08,7.107-6.095,11.978C538.402,319.788,540.337,319.462,540.462,318.864L540.462,318.864z"/>
			</g>
		</g>
		<g>
			<g>
				<path class="st14" d="M539.586,322.406c2.421-0.063,4.933-1.06,6.368-3.071c0.214-0.3-0.721-0.222-0.779-0.211
					c-0.391,0.067-0.887,0.202-1.129,0.542c-0.868,1.215-2.146,1.89-3.632,1.929C539.88,321.608,538.303,322.439,539.586,322.406
					L539.586,322.406z"/>
			</g>
		</g>
		<g>
			<g>
				<path class="st14" d="M534.954,329.834c0.47-2.134,1.623-4.145,3.606-5.193c1.134-0.6-0.655-0.527-1.121-0.281
					c-2.312,1.223-3.83,3.249-4.394,5.807C532.944,330.627,534.846,330.324,534.954,329.834L534.954,329.834z"/>
			</g>
		</g>
		<g>
			<g>
				<path class="st14" d="M513.466,335.241c-0.03-1.949-0.449-3.84-1.5-5.5c-0.297-0.47-2.078,0.286-1.932,0.518
					c1.051,1.66,1.469,3.551,1.5,5.5C511.539,336.065,513.475,335.778,513.466,335.241L513.466,335.241z"/>
			</g>
		</g>
		<g>
			<g>
				<path class="st14" d="M506.466,333.741c-0.404-1.268-0.49-2.503-0.49-3.827c0-0.968-1.951-0.638-1.951,0.171
					c0.001,1.435,0.071,2.796,0.51,4.173C504.801,335.096,506.728,334.562,506.466,333.741L506.466,333.741z"/>
			</g>
		</g>
		<g>
			<g>
				<path class="st14" d="M507.966,323.241c-0.707-1.847-1.169-3.961,0.316-5.556c0.79-0.848-1.095-0.874-1.563-0.371
					c-1.762,1.891-1.558,4.161-0.684,6.444C506.31,324.48,508.223,323.913,507.966,323.241L507.966,323.241z"/>
			</g>
		</g>
		<g>
			<g>
				<path class="st14" d="M481.966,327.241c0-1.379-0.079-2.677-0.5-4c-0.165-0.52-2.085,0.034-1.932,0.518
					c0.421,1.323,0.499,2.621,0.5,4C480.034,328.162,481.966,327.856,481.966,327.241L481.966,327.241z"/>
			</g>
		</g>
		<g>
			<g>
				<path class="st14" d="M464.466,320.741c-1.065-3.053-3.076-5.508-6.172-6.616c-0.433-0.155-2.162,0.543-1.587,0.749
					c2.937,1.051,4.824,3.51,5.828,6.384C462.694,321.716,464.603,321.134,464.466,320.741L464.466,320.741z"/>
			</g>
		</g>
		<g>
			<g>
				<path class="st14" d="M468.474,321.408c0.39-1.441,1.331-2.725,2.922-2.769c1.047-0.029,1.53-1.314,0.208-1.277
					c-2.531,0.07-4.434,1.856-5.078,4.231C466.298,322.434,468.266,322.175,468.474,321.408L468.474,321.408z"/>
			</g>
		</g>
		<g>
			<g>
				<path class="st14" d="M450.953,312.331c1.568-2.796,1.932-6.019,1.013-9.09c-0.134-0.449-2.059,0.094-1.932,0.518
					c0.905,3.022,0.557,6.159-0.987,8.91C448.899,312.933,450.68,312.818,450.953,312.331L450.953,312.331z"/>
			</g>
		</g>
		<g>
			<g>
				<path class="st14" d="M448.466,307.741c-0.318-2.251-1.579-4.102-3.918-4.46c-2.228-0.34-4.333,1.132-5.502,2.88
					c-0.173,0.258,1.586,0.162,1.91-0.323c0.959-1.434,2.128-2.198,3.704-1.166c1.193,0.781,1.686,2.247,1.875,3.586
					C446.596,308.695,448.542,308.281,448.466,307.741L448.466,307.741z"/>
			</g>
		</g>
		<g>
			<g>
				<path class="st14" d="M544.092,315.759c2.274-1.258,4.731-1.055,7.135-0.308c0.561,0.174,2.307-0.666,1.547-0.902
					c-3.369-1.048-6.729-1.042-9.865,0.692C541.769,315.871,543.496,316.088,544.092,315.759L544.092,315.759z"/>
			</g>
		</g>
		<g>
			<g>
				<path class="st14" d="M477.381,325.563c-2.903-3.352-7.224-1.132-8.811,2.305c-0.477,1.033,1.477,1.091,1.858,0.264
					c0.977-2.117,3.265-3.917,5.189-1.695C476.228,327.139,478.054,326.34,477.381,325.563L477.381,325.563z"/>
			</g>
		</g>
	</g>
	<path class="st5" d="M407,277c0,0-34,47-23,185l12.5-2c0,0-10.5-91,15.5-138L407,277z"/>
	<path class="st5" d="M422.372,454.165c1.618-2.619,96.667-65.141,171.853,0.972c0,0,24.411,26.251-5.858,38.891
		c0,0-173.806,31.111-167.947-21.39C420.419,472.638,414.56,466.804,422.372,454.165z"/>
	<path class="st9" d="M420.194,464.723c0,0-17.069,2.4-18.937-11.201l0.533-4.268c0,0,9.674,14.775,17.506,13.389"/>
	<path class="st9" d="M424.658,482.095c0,0-6.064,6.366-21-9.104l1.066-4.268C404.725,468.724,413.118,481.596,424.658,482.095z"/>
	<path class="st9" d="M398.857,480.46l2.135-6.669c0,0,11.06,17.406,22.065,17.905C423.058,491.696,413.793,497.797,398.857,480.46z
		"/>
	<path class="st9" d="M410.416,500.569c0,0-15.293,2.56-18.76-19.844l4.001-0.266C395.657,480.46,400.458,494.595,410.416,500.569z"
		/>
	<path class="st9" d="M387.083,499.869c0,0-10.163-3.142-5.962-23.345l4.801,2.001C385.922,478.525,379.121,488.727,387.083,499.869
		z"/>
	<ellipse class="st5" cx="391.123" cy="463.923" rx="16.323" ry="20.403"/>
	<path class="st5" d="M403.785,453.832c0,0,4.699,13.632,15.512,10.811c0,0,10.34,3.29,0,7.99c0,0-12.221,2.353-19.271-9.87"/>
	<path class="st5" d="M396.455,461.883c0,0,13.161,22.562,28.203,20.212c0,0,6.581,4.231-2.82,6.111c0,0-15.982-1.882-26.793-18.803
		"/>
	<path class="st5" d="M394.854,471.484c0,0,13.161,22.562,28.203,20.212c0,0,6.581,4.231-2.82,6.111c0,0-15.981-1.882-26.793-18.803
		"/>
	<path class="st5" d="M390.328,472.277c0,0,5.1,25.616,20.088,28.292c0,0,4.844,6.143-4.657,4.861c0,0-14.499-6.983-19.212-26.503"
		/>
	<path class="st5" d="M383.834,465.324c0,0-8.394,24.734,3.249,34.545c0,0,1.124,7.742-6.464,1.882c0,0-9.063-13.298-3.387-32.559"
		/>
	<g>
		<g>
			<path class="st14" d="M387.439,427.552c2.937-4.38-1.015-7.441-5.264-7.964c-5.193-0.639-10.167,2.539-10.318,7.999
				c-0.025,0.909,1.923,0.553,1.944-0.197c0.123-4.448,3.333-6.921,7.662-6.558c3.653,0.308,6.487,3.112,4.154,6.593
				C385.07,428.241,387.035,428.156,387.439,427.552L387.439,427.552z"/>
		</g>
	</g>
	<g>
		<g>
			<path class="st14" d="M389.12,415.445c2.246-2.575,5.167-4.515,8.607-2.978c0.44,0.197,2.206-0.503,1.578-0.783
				c-4.37-1.953-9.047,0.549-11.943,3.872C386.931,416.051,388.8,415.812,389.12,415.445L389.12,415.445z"/>
		</g>
	</g>
	<g>
		<g>
			<path class="st14" d="M390.719,422.479c2.992-2.354,6.498-2.707,9.179,0.238c0.422,0.463,2.259-0.229,1.801-0.732
				c-3.504-3.85-8.808-2.676-12.512,0.238C388.337,422.892,390.274,422.828,390.719,422.479L390.719,422.479z"/>
		</g>
	</g>
	<g>
		<g>
			<path class="st14" d="M391.974,433.141c1.719-1.63,3.61-2.143,5.634-0.748c0.468,0.322,2.141-0.451,1.815-0.676
				c-3.021-2.081-6.743-0.802-9.208,1.535C389.768,433.676,391.621,433.476,391.974,433.141L391.974,433.141z"/>
		</g>
	</g>
	<g>
		<g>
			<path class="st14" d="M380.645,395.835c-0.365-4.362-3.485-8.407-8.088-8.647c-4.419-0.23-6.062,3.644-5.259,7.452
				c0.193,0.919,2.128,0.415,1.932-0.518c-0.654-3.105,0.431-6.314,4.148-5.268c3.321,0.935,5.067,4.284,5.336,7.498
				C378.789,397.259,380.724,396.787,380.645,395.835L380.645,395.835z"/>
		</g>
	</g>
	<g>
		<g>
			<path class="st14" d="M375.769,397.097c-1.661,0.001-3.238,0.109-4.83,0.616c-1.167,0.372-0.829,1.705,0.355,1.328
				c1.427-0.455,2.816-0.525,4.303-0.526C376.703,398.514,377.079,397.096,375.769,397.097L375.769,397.097z"/>
		</g>
	</g>
	<g>
		<g>
			<path class="st14" d="M389.207,399.83c-0.888-4.014,0.908-7.189,4.602-8.867c1.205-0.548,0.133-1.604-0.859-1.154
				c-4.33,1.968-6.73,5.768-5.674,10.539C387.476,401.254,389.41,400.748,389.207,399.83L389.207,399.83z"/>
		</g>
	</g>
	<g>
		<g>
			<path class="st14" d="M394.908,404.509c1.144-2.639,3.554-4.045,6.305-4.547c0.837-0.152,1.657-1.133,0.312-0.887
				c-3.535,0.645-7.033,2.26-8.536,5.727C392.787,405.271,394.667,405.065,394.908,404.509L394.908,404.509z"/>
		</g>
	</g>
	<g>
		<g>
			<path class="st14" d="M380.645,402.924c0.648,0.438,1.259,0.887,1.691,1.551c0.477,0.732,0.181,1.644-0.154,2.359
				c-0.465,0.992,1.487,0.972,1.844,0.209c0.461-0.984,0.723-2.042,0.258-3.074c-0.424-0.942-1.316-1.587-2.146-2.148
				C381.441,401.35,379.739,402.312,380.645,402.924L380.645,402.924z"/>
		</g>
	</g>
	<g>
		<g>
			<path class="st14" d="M392.06,382.841c0.034-1.785,0.742-3.465,2.587-3.97c0.267-0.073,0.946-0.333,0.839-0.731
				c-0.106-0.397-0.826-0.287-1.092-0.213c-2.524,0.69-4.214,2.485-4.264,5.163C390.115,383.878,392.048,383.464,392.06,382.841
				L392.06,382.841z"/>
		</g>
	</g>
	<g>
		<g>
			<path class="st14" d="M388.558,381.412c-2.168-2.139-4.554-4.002-6.986-5.827c-0.629-0.472-2.357,0.42-1.504,1.061
				c2.336,1.753,4.631,3.535,6.713,5.589C387.361,382.806,389.193,382.038,388.558,381.412L388.558,381.412z"/>
		</g>
	</g>
	<g>
		<g>
			<path class="st14" d="M385.782,388.414c-1.045-2.061-2.249-4.03-2.854-6.279c-0.118-0.438-2.049,0.082-1.932,0.518
				c0.605,2.249,1.809,4.218,2.854,6.279C384.093,389.411,385.939,388.724,385.782,388.414L385.782,388.414z"/>
		</g>
	</g>
	<g>
		<g>
			<path class="st14" d="M382.928,371.861c-1.188-2.76-3.823-4.887-6.902-4.978c-0.462-0.014-1.03,0.128-1.261,0.578
				c-0.209,0.407,0.181,0.75,0.576,0.762c2.522,0.075,4.684,1.898,5.656,4.155C381.35,373.201,383.262,372.638,382.928,371.861
				L382.928,371.861z"/>
		</g>
	</g>
	<g>
		<g>
			<path class="st14" d="M390.341,371.4c1.136-2.125,3.256-3.185,5.325-4.221c0.208-0.104,0.632-0.466,0.208-0.611
				c-0.428-0.146-0.974,0.026-1.358,0.218c-2.39,1.196-4.786,2.469-6.092,4.912C388.211,372.096,390.055,371.934,390.341,371.4
				L390.341,371.4z"/>
		</g>
	</g>
	<g>
		<g>
			<path class="st14" d="M401.237,373.871c1.305-0.634,2.691-1.078,3.996-1.712c1.185-0.576,0.13-1.71-0.877-1.22
				c-1.305,0.634-2.691,1.078-3.996,1.712C399.176,373.227,400.23,374.361,401.237,373.871L401.237,373.871z"/>
		</g>
	</g>
	<path class="st9" d="M575.406,272.927c0,0,34.503,2.791,43.062,90.882c0,0,7.74,85.163,2.195,94.314l-12.643-0.639
		c0,0-5.178-93.99-28.797-121.602"/>
	<path class="st5" d="M577.826,276.688c0,0,38.875,43.055,42.838,181.436l-12.643-0.639c0,0,0.614-91.602-30.309-135.52
		L577.826,276.688z"/>
	<path class="st9" d="M584.976,464.737c0,0,17.229,0.544,17.616-13.18l-0.99-4.186c0,0-8.022,15.733-15.958,15.201"/>
	<path class="st9" d="M582.413,482.49c0,0,6.717,5.674,19.895-11.317l-1.521-4.128C600.787,467.045,593.832,480.748,582.413,482.49z
		"/>
	<path class="st9" d="M607.887,478.079l-2.842-6.399c0,0-9.116,18.499-20.004,20.183
		C585.041,491.862,594.91,496.928,607.887,478.079z"/>
	<path class="st9" d="M598.566,499.319c0,0,15.48,0.894,16.508-21.753l-4.006,0.168
		C611.068,477.734,607.821,492.305,598.566,499.319z"/>
	<path class="st9" d="M621.688,496.104c0,0,9.765-4.22,3.407-23.852l-4.557,2.508C620.538,474.76,628.4,484.167,621.688,496.104z"/>
	
		<ellipse transform="matrix(-0.9942 0.108 -0.108 -0.9942 1273.7427 852.651)" class="st5" cx="613.791" cy="460.804" rx="16.323" ry="20.403"/>
	<path class="st5" d="M600.113,452.139c0,0-3.2,14.06-14.254,12.423c0,0-9.925,4.387,0.862,7.943c0,0,12.403,1.02,18.093-11.894"/>
	<path class="st5" d="M608.27,459.352c0,0-10.648,23.851-25.856,23.139c0,0-6.086,4.917,3.464,5.771c0,0,15.686-3.597,24.606-21.586
		"/>
	<path class="st5" d="M610.897,468.725c0,0-10.648,23.85-25.856,23.138c0,0-6.086,4.918,3.464,5.771c0,0,15.685-3.596,24.606-21.585
		"/>
	<path class="st5" d="M615.482,469.023c0,0-2.304,26.018-16.916,30.296c0,0-4.152,6.63,5.155,4.33c0,0,13.66-8.508,16.238-28.422"/>
	<path class="st5" d="M621.188,461.41c0,0,11.015,23.684,0.499,34.693c0,0-0.281,7.818,6.63,1.174c0,0,7.574-14.199-0.148-32.734"/>
	<g>
		<g>
			<g>
				<path class="st14" d="M615.315,423.685c-2.769-3.298-0.122-6.206,3.502-6.836c4.244-0.738,7.682,1.796,8.261,6.018
					c0.105,0.77,2.045,0.306,1.932-0.518c-0.771-5.62-5.952-7.622-11.041-6.531c-4.235,0.908-7.755,4.713-4.435,8.67
					C614.028,425.075,615.878,424.355,615.315,423.685L615.315,423.685z"/>
			</g>
		</g>
		<g>
			<g>
				<path class="st14" d="M612.336,412.016c-3.492-3.217-7.98-4.483-12.238-2.01c-0.841,0.488,1.116,0.324,1.492,0.105
					c3.117-1.812,6.684,0.511,8.932,2.58C610.92,413.059,612.681,412.332,612.336,412.016L612.336,412.016z"/>
			</g>
		</g>
		<g>
			<g>
				<path class="st14" d="M611.24,418.903c-4.087-2.561-9.438-2.53-12.45,1.618c-0.487,0.672,1.444,0.468,1.787-0.004
					c2.398-3.304,6.051-2.643,9.114-0.724C610.183,420.102,611.979,419.366,611.24,418.903L611.24,418.903z"/>
			</g>
		</g>
		<g>
			<g>
				<path class="st14" d="M611.408,429.916c-2.872-2.18-6.49-2.34-9.286,0.06c-0.351,0.301,0.305,0.373,0.469,0.362
					c0.453-0.028,0.94-0.175,1.289-0.474c1.864-1.599,4.051-0.534,5.714,0.728C610.04,430.931,611.743,430.17,611.408,429.916
					L611.408,429.916z"/>
			</g>
		</g>
		<g>
			<g>
				<path class="st14" d="M619.275,431.55c1.463-1.287,3.319-2.073,5.158-1.045c1.758,0.982,2.045,3.107,1.717,4.901
					c-0.181,0.988,1.797,0.75,1.959-0.137c0.441-2.413-0.291-5.068-2.681-6.164c-2.586-1.187-5.398-0.268-7.442,1.53
					C617.002,431.502,618.532,432.204,619.275,431.55L619.275,431.55z"/>
			</g>
		</g>
		<g>
			<g>
				<path class="st14" d="M618.824,392.066c-0.081-3.247,1.314-6.72,4.571-7.924c3.59-1.328,4.929,2.189,4.635,5.127
					c-0.103,1.015,1.869,0.758,1.959-0.139c0.388-3.867-1.643-7.431-5.976-6.594c-4.553,0.878-7.26,5.228-7.148,9.668
					C616.891,393.239,618.847,392.955,618.824,392.066L618.824,392.066z"/>
			</g>
		</g>
		<g>
			<g>
				<path class="st14" d="M621.917,394.115c1.487-0.16,2.877-0.229,4.353,0.07c0.953,0.193,1.952-1.147,0.668-1.408
					c-1.63-0.33-3.208-0.257-4.851-0.08c-0.426,0.046-1.005,0.289-1.063,0.782C620.966,393.957,621.535,394.156,621.917,394.115
					L621.917,394.115z"/>
			</g>
		</g>
		<g>
			<g>
				<path class="st14" d="M610.744,396.961c0.531-4.738-2.151-8.227-6.58-9.677c-0.836-0.274-2.276,0.932-1.111,1.312
					c3.933,1.289,6.203,4.31,5.732,8.507C608.673,398.105,610.645,397.844,610.744,396.961L610.744,396.961z"/>
			</g>
		</g>
		<g>
			<g>
				<path class="st14" d="M605.548,401.929c-1.732-3.027-4.94-4.257-8.287-4.505c-0.499-0.037-2.246,0.84-1.219,0.916
					c3.049,0.227,5.991,1.341,7.574,4.106C603.94,403.013,605.776,402.328,605.548,401.929L605.548,401.929z"/>
			</g>
		</g>
		<g>
			<g>
				<path class="st14" d="M616.496,402.864c-0.985-1.629-0.371-2.738,0.963-3.87c1.001-0.849-0.548-1.48-1.275-0.863
					c-0.799,0.678-1.586,1.396-2,2.379c-0.467,1.11-0.042,2.233,0.543,3.2C615.17,404.442,617.015,403.722,616.496,402.864
					L616.496,402.864z"/>
			</g>
		</g>
		<g>
			<g>
				<path class="st14" d="M606.044,380.057c-0.302-2.406-1.869-4.049-4.27-4.428c-0.462-0.073-1.009,0.055-1.366,0.366
					c-0.296,0.258-0.228,0.604,0.179,0.668c2.105,0.332,3.268,1.86,3.525,3.912C604.191,381.208,606.134,380.772,606.044,380.057
					L606.044,380.057z"/>
			</g>
		</g>
		<g>
			<g>
				<path class="st14" d="M609.157,379.059c1.885-2.315,4.018-4.378,6.193-6.414c0.327-0.306,0.165-0.738-0.23-0.86
					c-0.479-0.148-1.012,0.035-1.365,0.366c-2.177,2.036-4.309,4.1-6.193,6.414C606.799,379.501,608.648,379.684,609.157,379.059
					L609.157,379.059z"/>
			</g>
		</g>
		<g>
			<g>
				<path class="st14" d="M612.89,385.143c0.817-2.161,1.797-4.249,2.159-6.549c0.073-0.467-1.833-0.125-1.906,0.34
					c-0.362,2.3-1.341,4.388-2.159,6.549C610.851,385.835,612.702,385.637,612.89,385.143L612.89,385.143z"/>
			</g>
		</g>
		<g>
			<g>
				<path class="st14" d="M613.963,368.464c0.641-2.092,2.408-4.151,4.677-4.463c0.412-0.057,1.003-0.269,1.071-0.755
					c0.065-0.463-0.524-0.637-0.88-0.588c-3.268,0.45-5.865,2.857-6.819,5.973C611.747,369.493,613.72,369.259,613.963,368.464
					L613.963,368.464z"/>
			</g>
		</g>
		<g>
			<g>
				<path class="st14" d="M606.452,368.432c-1.489-2.17-3.914-3.105-6.289-3.988c-0.492-0.183-2.25,0.575-1.566,0.829
					c2.308,0.858,4.603,1.755,6.047,3.859C604.942,369.567,606.812,368.957,606.452,368.432L606.452,368.432z"/>
			</g>
		</g>
	</g>
	<g>
		<g>
			<path class="st14" d="M594.934,371.037c-1.365-0.49-2.793-0.782-4.158-1.271c-0.876-0.314-2.267,0.943-1.1,1.361
				c1.366,0.489,2.793,0.781,4.158,1.271C594.71,372.712,596.1,371.455,594.934,371.037L594.934,371.037z"/>
		</g>
	</g>
	<g>
		<path class="st12" d="M576.333,273L550,274c0,0,13.666,107.667-104.333,41c0,0-12.667-3.333-14.667-42h-22l8,172
			c0,0,106.667-67.334,180.667,1.333C597.667,446.333,572,289.333,576.333,273z"/>
		<polyline class="st11" points="415,273.333 422.333,443.333 426.333,440.667 418.333,273.333 		"/>
		<polyline class="st11" points="421.667,273 430.333,435.667 437.667,432.333 425,273 		"/>
		<polyline class="st11" points="433,292.333 444.333,429.667 451.667,427.667 440.5,310.25 		"/>
		<polyline class="st11" points="449.25,317.25 458.333,425 464.333,424.333 455.25,320 		"/>
		<polygon class="st11" points="462.75,323.75 471.667,420.333 480.333,419 470.5,327.25 		"/>
		<polyline class="st11" points="479,330.333 485.667,418.333 494.333,416.333 486.5,333 		"/>
		<polyline class="st11" points="497,335.75 501.667,415 512,415 505,337 		"/>
		<polyline class="st11" points="516.333,336.333 521,415 529.667,415.667 522.75,335.25 		"/>
		<polyline class="st11" points="530.333,331.667 534.333,416.333 541,417 537.667,325.667 		"/>
		<polyline class="st11" points="545,315.667 549.667,418.333 559,423 548.333,304.333 		"/>
		<polyline class="st11" points="553,274.333 565,425 574.333,429 559,273.667 		"/>
		<polyline class="st11" points="566.25,273 582.333,433.667 587,437 572.25,273 		"/>
		<g>
			<path d="M485.376,367.696l-0.288,1.044v4.392l-0.216-0.036v1.332l0.144,0.108h-4.572l-0.468-1.728l0.216-0.504v-2.34
				l-0.216-6.264l0.144-0.288v-3.276l-0.252-0.36l0.216-0.36l-0.108-1.512l0.108-2.376l0.108-0.144l-0.216-0.144l0.072-0.756
				l0.216-0.396l-0.288-0.36l0.216-0.684v-3.996l0.252-1.332h2.988l1.152-0.108l0.504,4.32v11.736l0.108,2.556l-0.072,1.332
				L485.376,367.696z"/>
			<path class="st3" d="M513.138,372.845l-16.655-6.909v-4.348l16.655-6.921v5.203l-10.122,3.901l10.122,3.903V372.845z"/>
			<path class="st3" d="M527.14,371.376v0.36l-0.479,0.931l-1.08,1.412l-0.9-0.18h-3.6l-1.5,0.18h-1.381l-1.89-1.8v-5.82l3.15,0.36
				l-0.15,1.41l0.15,0.42v1.14l-0.091,0.21v0.36l0.48,0.84h1.98l2.07-0.12v-3.57l-0.271-2.61l-0.601-0.36h-2.789l-1.291,0.36v-3.72
				l0.84,0.27h0.871l2.609-0.27l0.36-0.45l-0.39-4.83l-0.33-0.36h-3.69l-0.06,0.24l-0.301,0.36l0.24,0.27v2.49l0.12,0.63h-1.08
				l-2.25,0.63v-4.893l-0.271-0.788l1.381-2h7.71l0.45,0.511l1.199,1.021l0.24,0.03l-0.12,2.073l0.39,5.137l-1.739,1.112
				l0.569,0.901l1.17,0.691v2.793l0.24,0.481v1.352l-0.119,0.51l0.06,0.241v-0.03l-0.06,0.661l0.149,1.111V371.376z"/>
			<path d="M493.044,403.6l-0.252,0.252l-3.204-0.287h-7.812l-1.512,0.071l-0.216-1.548l-0.288-3.528v-3.023l-0.144-0.72l0.18-1.872
				l-0.216-0.648v-3.456l0.36-1.224v-3.528l-0.432-0.504l0.252-0.216v-6.048h11.877l0.65-0.108l0.649,0.612l-0.216,0.828v9.828
				l-0.945-0.145l-0.654-0.324l-0.327,0.036l-0.182-0.288l-0.654,0.181h-0.4l-0.763-0.217v-4.571l0.144-0.612v-1.62h-5.616v1.908
				l0.504,5.256l-0.216,0.504v8.028l-0.18,0.18l0.288,0.288l-0.216,0.612v0.611l0.216,0.108l-0.108,1.44l1.188,0.18h4.608v-6.264
				l3.636-0.937V403.6z"/>
			<path d="M510.216,399.28l-0.504,2.376v0.863l0.288,0.469l-0.143,1.224l-2.693-0.144l-0.359,0.071h-10.377l-0.251-0.756
				l-0.251-2.268v-7.704l0.144-0.216l1.512-0.072h2.34v1.692l0.252,0.359l-0.216,0.181v3.275l-0.108,0.288l0.18,1.548h6.264
				l-0.36-6.408l-10.116-4.823v-11.269h5.673l0.179-0.144l0.61,0.072l0.144,0.144l1.149-0.216l0.18,0.216l1.113-0.288l0.574,0.036
				l0.108,0.18l2.729-0.216l0.18,0.216l0.826,0.252l0.144,1.584l-0.215,0.108l0.431,0.612v1.008l-0.144,0.252l0.252,0.468v6.192
				l-3.636-0.324l-0.288-1.152v-4.824l-0.648-0.071l-1.692,0.107h-3.96v1.404l0.216,0.36l-0.144,0.396v0.864l0.144,0.144
				l-0.108,0.324v0.756l0.466,0.36l8.287,4.32v0.288l1.614,0.72v0.252l-0.18,0.107l0.216,5.148l-0.216,1.044l0.252,0.144
				l0.036,0.396L510.216,399.28z"/>
			<path d="M527.1,399.28l-0.504,2.376v0.863l0.287,0.469l-0.143,1.224l-2.693-0.144l-0.359,0.071h-10.377l-0.252-0.756
				l-0.251-2.268v-7.704l0.144-0.216l1.511-0.072h2.341v1.692l0.252,0.359l-0.216,0.181v3.275l-0.108,0.288l0.181,1.548h6.264
				l-0.36-6.408l-10.116-4.823v-11.269h5.673l0.18-0.144l0.609,0.072l0.145,0.144l1.148-0.216l0.18,0.216l1.113-0.288l0.574,0.036
				l0.107,0.18l2.729-0.216l0.18,0.216l0.826,0.252l0.145,1.584l-0.216,0.108l0.431,0.612v1.008l-0.145,0.252l0.252,0.468v6.192
				l-3.635-0.324l-0.289-1.152v-4.824l-0.647-0.071l-1.692,0.107h-3.959v1.404l0.215,0.36l-0.144,0.396v0.864l0.144,0.144
				l-0.107,0.324v0.756l0.467,0.36l8.287,4.32v0.288l1.613,0.72v0.252l-0.18,0.107l0.217,5.148l-0.217,1.044l0.252,0.144
				l0.037,0.396L527.1,399.28z"/>
		</g>
	</g>
	<g>
		<g>
			<path class="st9" d="M513.332,471.299c-1.251-0.021-2.541-0.385-3.77-0.019c-1.337,0.397-1.946,1.687-2.375,2.9
				c-0.092,0.259-0.062,0.507,0.181,0.674c3.438,2.372,8.471,1.842,10.198-2.361c0.64-1.556,0.434-3.357-0.737-4.599
				c-1.715-1.819-4.608-1.917-6.92-1.732c-1.089,0.087-1.486,1.529-0.169,1.424c2.8-0.223,7.294,0.669,6.041,4.514
				c-1.056,3.231-4.477,3.324-6.925,1.634c0.061,0.225,0.121,0.449,0.181,0.674c0.257-0.727,0.512-1.896,1.451-1.864
				c0.895,0.031,1.779,0.165,2.678,0.18C514.273,472.741,514.64,471.32,513.332,471.299L513.332,471.299z"/>
		</g>
	</g>
	<g>
		<g>
			<path class="st9" d="M443.95,459.518c3.961-7.05,11.205-9.521,18.494-11.778c7.188-2.227,14.629-3.588,22.084-4.525
				c14.229-1.789,28.929-1.511,42.986,1.413c0.717,0.149,2.291-0.935,1.15-1.172c-16.062-3.34-32.694-3.207-48.876-0.797
				c-12.472,1.857-30.84,4.594-37.661,16.73C441.633,460.269,443.59,460.157,443.95,459.518L443.95,459.518z"/>
		</g>
	</g>
	<path class="st7" d="M425.297,497.808l-3.63,9.192l191.321,2l-4.628-23.677C608.359,485.323,551.515,523.604,425.297,497.808z"/>
</g>
<g id="head">
	<g>
		<g>
			<g>
				<path class="st14" d="M504.092,205.409c0.001-0.449,0.018-0.797,0.337-1.136c0.311-0.328,0.175-0.765-0.242-0.902
					c-0.469-0.155-1.042,0.015-1.376,0.369c-0.501,0.53-0.686,1.116-0.688,1.833C502.121,206.565,504.09,206.246,504.092,205.409
					L504.092,205.409z"/>
			</g>
		</g>
		<polyline class="st9" points="469.744,236.279 466.682,270.783 546.294,272.812 540.171,238.309 		"/>
		<path class="st5" d="M587.061,162.695c0-12.97-16.061-1.85-22.061,2.773V96H443v62.598c-8-5.054-20.918-12.898-20.918-1.225
			c0,0,2.642,13.04,16.289,15.544c-6.254,7.324-9.979,15.835-9.979,24.924c0,22.627,22.143,41.714,52.494,47.665
			c-0.116,0.999-0.21,2.022-0.21,3.066c0,10.702,6.331,19.38,14.161,19.38c5.151,0,9.651-3.756,12.135-9.37
			c2.344,5.658,6.257,9.37,10.697,9.37c7.177,0,12.993-9.698,12.993-21.66c0-1.071-0.052-2.122-0.142-3.15
			c25.379-7.734,43.068-25.107,43.068-45.301c0-6.852-1.811-13.376-5.493-19.313C583.617,177.092,587.061,162.695,587.061,162.695z"
			/>
		<polygon class="st14" points="440,99.538 440,162.619 446.574,157.754 454.747,162.314 457.061,107.595 551.557,106.455 
			556.271,173.714 561.709,169.268 570.438,163.637 568.073,92 452.211,92 442.833,73.427 440.47,87.091 427.67,80.243 		"/>
		<path class="st5" d="M490.881,171.884c0,0-14.177,22.742-3.544,14.363l7.089-3.591c0,0,4.725,26.333,12.997,0
			c0,0,11.814,13.167,9.452,1.198l-9.452-15.561"/>
		<path class="st13" d="M486.55,223.874c0,0,18.904-22.8,37.807-2.281C524.356,221.593,508.999,185.115,486.55,223.874z"/>
		<path class="st6" d="M444,155.78v-52.442l-7.987-16.756l6.005,1.076l1.331-8.962c0,0,8.838,14.338,9.209,15.772
			c0.372,1.434,112.9,0,112.9,0l2.582,67.03l-7.067,5.735l-4.465-61.654c0,0-57.958,26.884-97.337,15.056l-4.088-2.868l-1.98,29.393
			L444,155.78z"/>
		<linearGradient id="SVGID_1_" gradientUnits="userSpaceOnUse" x1="476.2544" y1="134.7988" x2="477.3958" y2="196.4332">
			<stop  offset="0" style="stop-color:#F7931E"/>
			<stop  offset="1" style="stop-color:#000000"/>
		</linearGradient>
		<path class="st1" d="M450.116,138.423c0,0-17.521,51.426,27.345,33.469c0,0,36.779-5.018,27.37-37.317L450.116,138.423z"/>
		<linearGradient id="SVGID_2_" gradientUnits="userSpaceOnUse" x1="531.668" y1="135.3164" x2="532.7927" y2="196.0457">
			<stop  offset="0" style="stop-color:#F7931E"/>
			<stop  offset="1" style="stop-color:#000000"/>
		</linearGradient>
		<path class="st2" d="M558.921,137.041c0,0,18.658,48.781-28.051,35.927c0,0-34.551-6.452-28.979-34.77L558.921,137.041z"/>
		<polyline points="452.465,132.675 572.406,128.115 568.772,138.375 445.197,141.795 		"/>
		<path class="st14" d="M458.796,134.972c0,0,19.319-15.055,31.95-2.509C490.747,132.463,473.658,110.597,458.796,134.972z"/>
		<path class="st14" d="M514.151,129.595l6.688-3.226l27.863,2.868l-23.405-5.376C525.297,123.86,517.867,121.709,514.151,129.595z"
			/>
		<polyline class="st14" points="488.146,192.682 472.542,198.417 472.914,201.644 		"/>
		<path class="st9" d="M437.947,157.555c0,0-14.489-7.526-13.003-3.227c0,0,0.09,12.188,11.19,17.207c0,0-20.85-5.736-13.047-20.432
			C423.087,151.103,429.402,145.726,437.947,157.555z"/>
		<path class="st9" d="M570.217,162.875c0,0,14.489-7.527,13.004-3.226c0,0-0.09,12.187-11.191,17.205
			c0,0,20.851-5.735,13.048-20.432C585.077,156.422,578.761,151.045,570.217,162.875z"/>
		<path class="st10" d="M476.257,98.769c-1.114,0.358-20.805,1.433-20.805,1.433l14.489,5.377c0,0-9.288,3.943-7.802,4.303
			c1.486,0.357,12.261-0.719,12.261-0.719l-11.146,5.378l-4.086,1.434c0,0,53.867,11.47,94.362-14.338l5.945-4.301l3.343,24.016
			l-0.744-24.016"/>
		<path class="st9" d="M508.207,247.884c0,0,5.202,25.809,14.492,14.697c0,0,7.8-11.471,6.312-22.225
			c0,0,45.326-7.168,37.896-57.711c0,0,18.62,41.776-36.387,60.497c0,0-4.741,41.908-23.558,15.44c0,0-13.616,19.053-22.161,0.055
			c0,0,11.517,15.772,22.291-1.434L508.207,247.884z"/>
		<path class="st14" d="M510.97,190.434c0,0,22.448,6.839,20.085,6.839c-2.362,0,15.361,14.82,15.361,14.82l-2.363,45.599
			l-10.635-45.599l-11.815-6.84l-15.359-12.54"/>
		<polygon class="st6" points="506.521,192.979 525.319,197.579 540.977,211.144 543.944,249.046 529.19,212.687 		"/>
		<path class="st9" d="M439.016,176.581c0,0-20.098,59.825,38.317,64.008C477.333,240.589,408.134,231.76,439.016,176.581z"/>
		<path class="st14" d="M493.637,191.063l-14.721,13.233l-11.462,7.378l-8.36,46.038l-4.621-45.438c0,0,16.967-15.62,14.607-15.512
			c-2.361,0.109,19.724-7.758,19.724-7.758"/>
		<polygon class="st6" points="490.747,191.966 472.542,198.417 458.425,213.473 459.54,251.469 470.313,213.831 		"/>
		<path class="st9" d="M495.632,167.752c0,0,0.573,30.901,6.863,23.175l-3.431,2.759
			C499.064,193.687,491.63,185.409,495.632,167.752z"/>
	</g>
</g>
<g id="fish">
	<path class="st4" d="M540.855,678.381c0,0-14.424-9.164-25.453,2.376l4.581-0.34l-4.621,2.221c0,0,12.937,5.755,25.153-3.238
		l3.902,1.188l-0.339-2.885L540.855,678.381z"/>
	<path class="st4" d="M537.855,660.381c0,0-14.424-9.164-25.453,2.376l4.581-0.34l-4.621,2.221c0,0,12.937,5.755,25.153-3.238
		l3.902,1.188l-0.339-2.885L537.855,660.381z"/>
	<path class="st4" d="M496.855,681.381c0,0-14.424-9.164-25.453,2.376l4.581-0.34l-4.621,2.221c0,0,12.937,5.755,25.153-3.238
		l3.902,1.188l-0.339-2.885L496.855,681.381z"/>
	<path class="st4" d="M597.855,667.381c0,0-14.424-9.164-25.453,2.376l4.581-0.34l-4.621,2.221c0,0,12.937,5.755,25.153-3.238
		l3.902,1.188l-0.339-2.885L597.855,667.381z"/>
	<path class="st4" d="M556.633,686.674c0,0-11.469-7.287-20.239,1.89l3.644-0.271l-3.675,1.766c0,0,10.286,4.576,20.001-2.574
		l3.103,0.943l-0.27-2.293L556.633,686.674z"/>
</g>
<g id="water">
	<path class="st15" d="M372.955,711.168L372,594c0,0,25.786,38.399,59.214,6.893c0,0,8.595,30.522,45.843,17.723
		c0,0,15.28,3.938,16.235-21.661c0,0,6.686,35.445,25.786,24.615c0,0,14.326-6.893,10.506-20.677c0,0,15.281,38.399,21.967,25.6
		c0,0,5.73,6.893,11.461-20.677c0,0,8.595,31.507,35.337,17.723c0,0,20.056-6.893,20.056-21.661c0,0,2.865,27.569,8.596,27.569
		l-0.955,85.66C626.045,715.106,401.606,732.83,372.955,711.168z"/>
</g>
<g id="compression_tank">
	<g>
		<g>
			<path class="st8" d="M388.708,404.908C383.905,401.671,476.481,443,543.922,421C543.922,421,474.649,462.816,388.708,404.908z"/>
		</g>
		<ellipse class="st8" cx="502.07" cy="52.881" rx="139.014" ry="11.039"/>
		<path class="st8" d="M398.728,120.761c0,0-6.291,57.421,2.097,77.222C400.824,197.982,379.854,164.322,398.728,120.761z"/>
		<ellipse class="st8" cx="496.174" cy="714.992" rx="135.777" ry="11.15"/>
		<path class="st8" d="M386.366,511.89c0,0,20.482,126.815,67.862,128.224C454.228,640.113,380.293,636.535,386.366,511.89z"/>
		<rect x="365" y="52" class="st0" width="270" height="666"/>
		<path class="st8" d="M593.992,78c0,0,36.787,94,12.263,128C606.255,206,653.26,166,593.992,78z"/>
	</g>
</g>
</svg>
