<?xml version="1.0" encoding="utf-8"?>
<!-- Generator: Adobe Illustrator 15.0.2, SVG Export Plug-In . SVG Version: 6.00 Build 0)  -->
<!DOCTYPE svg PUBLIC "-//W3C//DTD SVG 1.1//EN" "http://www.w3.org/Graphics/SVG/1.1/DTD/svg11.dtd">
<svg version="1.1" id="Layer_1" xmlns="http://www.w3.org/2000/svg" xmlns:xlink="http://www.w3.org/1999/xlink" x="0px" y="0px"
	 width="180.847px" height="245.885px" viewBox="0 0 180.847 245.885" enable-background="new 0 0 180.847 245.885"
	 xml:space="preserve">
<g>
	<ellipse fill="#333333" cx="90.23" cy="164.403" rx="88.889" ry="81.481"/>
	<ellipse fill="#414243" cx="95.231" cy="159.403" rx="85.616" ry="78.481"/>
	<path fill="#414243" d="M52.638,96.366c0,0-2.224-22.222-2.964-22.963s0.74,0.741,0.74,0.741l58.52-10.371l6.667,25.926"/>
	
		<ellipse transform="matrix(0.9872 -0.1598 0.1598 0.9872 -10.2444 13.7382)" fill="#E42F92" cx="80.312" cy="70.576" rx="33.743" ry="7.534"/>
	<path fill="#333333" d="M51.897,89.7c0,0,58.519,5.926,61.481-10.371c0,0,8.888,31.852-65.186,23.704
		C48.193,103.033,41.527,100.07,51.897,89.7z"/>
	<path fill="#F176AE" d="M74.86,68.959c0,0-2.964-22.962-12.593-25.185l5.186-5.186c0,0,12.593,14.075,12.593,27.408
		C80.045,65.996,79.304,74.885,74.86,68.959z"/>
	<path fill="#F176AE" d="M105.23,129.7c0,0-59.259-31.111-53.333,10.37c0,0,6.666,46.667,65.926,55.556l5.926-60"/>
	<path fill="#E42F92" d="M103.105,134.489c0,0-50.233-28.129-40.184,10.046c0,0,10.045,38.175,56.257,52.239
		c0,0,48.222-46.213,22.102-80.368C141.28,116.405,133.244,96.315,103.105,134.489z"/>
	<polygon fill="#F176AE" points="64.897,33.7 57.981,33.763 59.744,40.451 54.405,36.054 51.456,42.311 50.193,35.51 43.913,38.408 
		47.316,32.387 40.642,30.569 47.12,28.145 43.175,22.462 49.697,24.769 50.327,17.88 53.84,23.839 58.75,18.968 57.612,25.79 
		64.504,25.215 59.248,29.709 	"/>
	<polygon fill="#F49BC2" points="50.569,56.408 39.459,56.508 42.292,67.252 33.715,60.188 28.978,70.238 26.95,59.316 
		16.861,63.97 22.329,54.298 11.608,51.378 22.012,47.483 15.677,38.356 26.153,42.061 27.165,30.996 32.808,40.567 40.696,32.743 
		38.867,43.701 49.938,42.778 41.495,49.997 	"/>
	<polygon fill="#E42F92" points="42.092,30.584 38.535,31.204 37.029,34.485 35.339,31.293 31.753,30.875 34.267,28.283 
		33.557,24.742 36.799,26.332 39.947,24.562 39.437,28.137 	"/>
	<path fill="#E42F92" d="M51.69,47.866c0,0-3.748-2.099-2.998,0.75c0,0,0.749,2.849,4.197,3.898c0,0,3.6-3.449,1.65-5.998
		C54.54,46.516,53.94,45.017,51.69,47.866z"/>
	<path fill="#E42F92" d="M51.45,3.487c0,0-7.495-4.198-5.995,1.5c0,0,1.498,5.698,8.394,7.798c0,0,7.199-6.898,3.301-11.997
		C57.149,0.788,55.95-2.21,51.45,3.487z"/>
	<path fill="#F176AE" d="M9.508,19.499c0,0-15.098,1.338-7.244,8.148c0,0,7.852,6.812,19.985,3.012c0,0,3.63-17.211-7.121-20.761
		C15.129,9.898,10.397,6.722,9.508,19.499z"/>
</g>
</svg>
